<?xml version="1.0" encoding="UTF-8"?>
<svg width="131px" height="134px" viewBox="0 0 131 134" version="1.1" xmlns="http://www.w3.org/2000/svg" xmlns:xlink="http://www.w3.org/1999/xlink">
    <!-- Generator: Sketch 44.1 (41455) - http://www.bohemiancoding.com/sketch -->
    <title>Group</title>
    <desc>Created with Sketch.</desc>
    <defs></defs>
    <g id="Page-1" stroke="none" stroke-width="1" fill="none" fill-rule="evenodd">
        <g id="Home-Page-Copy" transform="translate(-235.000000, -810.000000)" fill="#000000">
            <g id="Group-24" transform="translate(160.000000, 808.000000)">
                <g id="Group-21" transform="translate(0.000000, 2.000000)">
                    <g id="Group-8">
                        <g id="005-medical" transform="translate(75.000000, 0.000000)">
                            <g id="Capa_1">
                                <g id="Group">
                                    <path d="M112.265468,89.2259699 L66.0536218,97.2481897 L52.9277985,84.1460836 C52.4920575,83.7088041 51.9001954,83.4645788 51.2803713,83.4645788 L27.9787144,83.4645788 C27.9787144,82.1783255 26.9371304,81.1386235 25.6485487,81.1386235 L16.327886,81.1386235 L0.0167261209,81.1386235 L0.0167261209,85.790534 L13.9977203,85.790534 L13.9977203,118.353908 L0.0167261209,118.353908 L0.0167261209,123.005818 L16.327886,123.005818 L25.6485487,123.005818 C26.9371304,123.005818 27.9787144,121.966116 27.9787144,120.679863 L34.4192924,120.679863 L59.3310938,133.11442 C60.4076304,133.651716 61.5750434,133.921526 62.7377961,133.921526 C64.0636603,133.921526 65.3871944,133.574959 66.5732488,132.88415 L117.408144,103.281718 C119.738309,101.925686 121.185342,99.4113281 121.185342,96.7178719 C121.185342,94.4686731 120.195022,92.3474019 118.470699,90.8983318 C116.751037,89.4492616 114.479125,88.8421873 112.265468,89.2259699 Z M23.318383,118.353908 L18.6580517,118.353908 L18.6580517,85.790534 L23.318383,85.790534 L23.318383,118.353908 Z M115.059337,99.2624669 L64.2267719,128.8649 C63.3646106,129.367306 62.3137059,129.399869 61.4165921,128.953286 L36.0131257,116.274504 C35.6892327,116.111687 35.3303872,116.027952 34.9692115,116.027952 L27.9787144,116.027952 L27.9787144,88.1164893 L50.3156827,88.1164893 L68.6750582,106.442691 C69.4673146,107.233516 69.9216969,108.329041 69.9216969,109.450151 C69.9216969,111.794714 68.010961,113.701997 65.662154,113.701997 C64.5413443,113.701997 63.4415061,113.248436 62.6492498,112.457611 L50.5976328,100.427771 L47.3027785,103.716671 L59.3543955,115.746512 C61.0391053,117.428178 63.2783945,118.353908 65.662154,118.353908 C70.5788036,118.353908 74.5820283,114.357917 74.5820283,109.450151 C74.5820283,107.073025 73.6546223,104.835456 71.9699125,103.15379 L70.0824783,101.269766 L113.060054,93.8081018 C113.924546,93.6522628 114.800688,93.8941622 115.469446,94.4570433 C116.140533,95.0199245 116.525011,95.8433127 116.525011,96.7155459 C116.525011,97.7598998 115.963441,98.736801 115.059337,99.2624669 Z" id="Shape"></path>
                                    <path d="M130.506005,16.011876 L130.506005,11.3599655 L115.870234,11.3599655 C115.446144,10.92036 114.856612,11.3599655 114.194845,11.3599655 L104.874182,11.3599655 C103.585601,11.3599655 102.544017,11.3599655 102.544017,13.6859208 L96.1034386,13.6859208 L71.189307,0.893166822 C68.8801128,-0.26050699 66.1724603,-0.351219245 63.9494822,0.944337838 L13.1145875,30.4560582 C10.7844218,31.8120902 9.33738889,34.2822547 9.33738889,36.9757109 C9.33738889,39.2249096 10.3277093,41.3205953 12.0497018,42.7696654 C13.4361503,43.9326431 15.1674635,44.5443693 16.94771,44.5443693 C17.3857812,44.5443693 17.8215222,44.5001761 18.2572632,44.4257456 L64.466779,36.4011999 L77.5926023,49.861503 C78.0306735,50.2964567 78.6225356,50.901205 79.2423596,50.901205 L102.544017,50.901205 C102.544017,50.901205 103.585601,53.2271603 104.874182,53.2271603 L112.519456,53.2271603 L114.194845,53.2271603 L130.506005,53.2271603 L130.506005,48.5752498 L116.525011,48.5752498 L116.525011,16.011876 L130.506005,16.011876 Z M80.2070482,46.2492945 L61.8500029,27.5672218 C61.0437656,26.7624413 60.6010341,25.5134033 60.6010341,24.3783371 C60.6010341,22.0314483 62.51177,20.0334527 64.860577,20.0334527 C65.9976979,20.0334527 67.0672439,20.4311911 67.8734812,21.2359716 L79.9250982,33.2402267 L83.2199525,29.9396962 L71.1706657,17.9098555 C69.4859559,16.223538 67.2443365,15.2954818 64.860577,15.2954818 C59.9439274,15.2954818 55.9407027,19.289147 55.9407027,24.1992386 C55.9407027,26.5740389 56.8657785,28.8092819 58.5528185,30.4955995 L60.4379225,32.3772973 L17.4603465,39.8389618 C16.5888645,39.9901489 15.7197127,39.7505755 15.048625,39.1900203 C14.3821976,38.6271391 13.9977203,37.8037509 13.9977203,36.9315177 C13.9977203,35.8848378 14.5592902,34.9079366 15.4633945,34.3822707 L66.2959591,4.78216403 C67.1581204,4.28208364 68.2090251,4.24719432 69.1061389,4.69377773 L94.5096053,17.7330829 C94.8334983,17.8935739 95.1923438,18.3378313 95.5535195,18.3378313 L102.544017,18.3378313 L102.544017,46.2492945 L80.2070482,46.2492945 Z M107.204348,16.011876 L111.864679,16.011876 L111.864679,48.5752498 L107.204348,48.5752498 L107.204348,16.011876 Z" id="Shape"></path>
                                    <path d="M65.2613655,55.6647614 C61.4655256,52.3479492 55.5329237,52.4340096 51.8466016,55.9345722 C49.9778087,57.7116021 48.9502057,60.0794245 48.9502057,62.6077379 C48.9502057,65.1337253 49.9778087,67.5015478 51.8466016,69.2762516 L63.6535512,80.4966598 C64.1056033,80.9246356 64.6834844,81.1386235 65.2613655,81.1386235 C65.8392466,81.1386235 66.4171277,80.9246356 66.8668497,80.4989858 L78.6737992,69.2785776 C80.5449223,67.5015478 81.5725253,65.1337253 81.5725253,62.6077379 C81.5725253,60.0794245 80.5449223,57.7116021 78.6761294,55.9345722 L78.6761294,55.9322463 C74.9874771,52.4316836 69.0548752,52.3502752 65.2613655,55.6647614 Z M75.4628309,65.9059425 L65.2613655,75.600524 L55.0599001,65.9059425 C54.1278338,65.0174275 53.610537,63.8451461 53.610537,62.6054119 C53.610537,61.3656778 54.1255037,60.1910704 55.0599001,59.3025555 C56.0642015,58.3489138 57.3830753,57.872093 58.6996189,57.872093 C60.0184927,57.872093 61.3373665,58.3489138 62.3393377,59.3025555 L63.651221,60.5492675 C64.5529951,61.4028931 65.9627454,61.4028931 66.8645195,60.5492675 L68.1764028,59.3025555 C70.1826754,57.3952721 73.4472376,57.3975981 75.4581706,59.3002295 C76.3972273,60.1910704 76.912194,61.3656778 76.912194,62.6054119 C76.912194,63.8451461 76.3948972,65.0174275 75.4628309,65.9059425 Z" id="Shape"></path>
                                    <path d="M38.2221228,48.9590324 L34.3587081,46.3562884 C33.4313021,47.7286021 32.5877822,49.1706943 31.8584403,50.6383721 L36.0317671,52.7107982 C36.6679023,51.424545 37.4065648,50.1638772 38.2221228,48.9590324 Z" id="Shape"></path>
                                    <path d="M28.7593199,74.8003954 C29.0995241,76.4239122 29.5492461,78.0334732 30.096835,79.5755815 L34.4891974,78.0264953 C34.0115134,76.6774413 33.6177154,75.2702384 33.3194542,73.8467537 L28.7593199,74.8003954 Z" id="Shape"></path>
                                    <path d="M28.6707736,60.0142978 L33.2448889,60.9051386 C33.5221786,59.4863059 33.8973353,58.076777 34.3610383,56.7137672 L29.9453743,55.218178 C29.4164267,56.776568 28.9900063,58.390781 28.6707736,60.0142978 Z" id="Shape"></path>
                                    <path d="M27.9787144,67.1898698 C27.9810446,68.0946664 28.0136669,68.9924851 28.0765814,69.883326 L32.7229318,69.5553663 C32.669338,68.7715193 32.641376,67.9760426 32.6390458,67.1828919 C32.6390458,66.5223206 32.6576871,65.8664012 32.6973,65.2128078 L28.0462892,64.9267153 C28.0020161,65.6756729 27.9787144,66.4269564 27.9787144,67.1898698 Z" id="Shape"></path>
                                    <path d="M96.0288733,56.3299846 C96.5135478,57.6999723 96.9050156,59.1048493 97.1962863,60.5074003 L101.761081,59.5630624 C101.425537,57.9581533 100.975815,56.3509182 100.425896,54.7855503 L96.0288733,56.3299846 Z" id="Shape"></path>
                                    <path d="M92.3029384,85.3974476 L96.1616927,88.0048434 C97.0890987,86.6348558 97.9349488,85.1950895 98.6666209,83.7204338 L94.4932941,81.6480077 C93.8548287,82.9389129 93.1161662,84.1995806 92.3029384,85.3974476 Z" id="Shape"></path>
                                    <path d="M96.1640229,77.6473646 L100.579687,79.1429539 C101.110965,77.5845638 101.537385,75.9726768 101.856618,74.3468341 L97.2825024,73.4559932 C97.0028826,74.8771519 96.6277259,76.2843548 96.1640229,77.6473646 Z" id="Shape"></path>
                                    <path d="M102.544017,67.1898698 C102.546347,66.2757693 102.511394,65.3686468 102.44615,64.4685021 L97.7997992,64.8080916 C97.8557232,65.5896125 97.8860154,66.3804373 97.8836852,67.1828919 C97.8836852,67.8411372 97.8650439,68.4947307 97.825431,69.1459981 L102.476442,69.4320906 C102.520715,68.685459 102.544017,67.9365014 102.544017,67.1898698 Z" id="Shape"></path>
                                </g>
                            </g>
                        </g>
                    </g>
                </g>
            </g>
        </g>
    </g>
</svg>