<?xml version="1.0" encoding="utf-8"?>
<!-- Generator: Adobe Illustrator 21.1.0, SVG Export Plug-In . SVG Version: 6.00 Build 0)  -->
<svg version="1.1" id="Calque_1" xmlns="http://www.w3.org/2000/svg" xmlns:xlink="http://www.w3.org/1999/xlink" x="0px" y="0px"
	 viewBox="0 0 20 20" style="enable-background:new 0 0 20 20;" xml:space="preserve">
<title>post-linkedin</title>
<desc>Created with Sketch.</desc>
<g id="Page-1">
	<g id="Home-Page-Copy" transform="translate(-225.000000, -621.000000)">
		<g id="Group-11">
			<g id="post-linkedin" transform="translate(225.000000, 621.000000)">
				<path id="Shape" d="M18,0H2C0.9,0,0,0.9,0,2v16c0,1.1,0.9,2,2,2h16c1.1,0,2-0.9,2-2V2C20,0.9,19.1,0,18,0L18,0z M6,17H3V8h3V17
					L6,17z M4.5,6.3c-1,0-1.8-0.8-1.8-1.8s0.8-1.8,1.8-1.8s1.8,0.8,1.8,1.8S5.5,6.3,4.5,6.3L4.5,6.3z M17,17h-3v-5.3
					c0-0.8-0.7-1.5-1.5-1.5S11,10.9,11,11.7V17H8V8h3v1.2c0.5-0.8,1.6-1.4,2.5-1.4c1.9,0,3.5,1.6,3.5,3.5V17L17,17z"/>
			</g>
		</g>
	</g>
</g>
</svg>
