<svg xmlns="http://www.w3.org/2000/svg" viewBox="0 0 321.88 160.92"><defs><style>.cls-1{fill:#ff8d01;}.cls-2{isolation:isolate;}</style></defs><title>Fichier 10</title><g id="Calque_2" data-name="Calque 2"><g id="Calque_1-2" data-name="Calque 1"><path class="cls-1" d="M55,65.63h0s1-16.9-11.4-16.9v16.9h0V48.73c-12.4,0-11.4,16.9-11.4,16.9h0v41.2c0,.4-.8,16.9,11.4,16.9v-16.9h0v16.9c12,0,11.5-15.8,11.4-16.9h0Z"/><g class="cls-2"><path class="cls-1" d="M114,119.23a24.77,24.77,0,0,1-2.08-6.32q-6.06,7.62-16.94,7.63a25,25,0,0,1-16.94-6,19.18,19.18,0,0,1-7-15.15Q71,87.89,79.5,82t24.63-5.86h6.78V72.43q0-9.76-8.41-9.76-7.82,0-7.82,7.73h-22q0-10.22,8.7-16.6t22.19-6.38q13.49,0,21.31,6.58t8,18.05v31.21q.13,9.71,3,14.86v1.11ZM100.22,104.9a12.25,12.25,0,0,0,6.81-1.76,11,11,0,0,0,3.88-4V87.89h-6.39q-11.47,0-11.47,10.3a6.29,6.29,0,0,0,2,4.85A7.31,7.31,0,0,0,100.22,104.9Z"/></g><g class="cls-2"><path class="cls-1" d="M160.66,119.23h-21.5L156.49,19.14H178Z"/><path class="cls-1" d="M196.89,119.23h-21.5L192.72,19.14h21.5Z"/></g><g class="cls-2"><path class="cls-1" d="M257.27,119.23a24.75,24.75,0,0,1-2.08-6.32q-6.06,7.62-16.94,7.63a25,25,0,0,1-16.94-6,19.18,19.18,0,0,1-7-15.15q0-11.47,8.47-17.33t24.63-5.86h6.78V72.43q0-9.76-8.41-9.76-7.82,0-7.82,7.73H216q0-10.22,8.7-16.6t22.19-6.38q13.49,0,21.31,6.58t8,18.05v31.21q.13,9.71,3,14.86v1.11ZM243.52,104.9a12.25,12.25,0,0,0,6.81-1.76,11,11,0,0,0,3.88-4V87.89h-6.39q-11.47,0-11.47,10.3a6.28,6.28,0,0,0,2,4.85A7.31,7.31,0,0,0,243.52,104.9Z"/></g><g class="cls-2"><path class="cls-1" d="M283.69,109.78a10.47,10.47,0,0,1,3.32-8.11,12.71,12.71,0,0,1,16.88-.29,10.9,10.9,0,0,1,.13,15.8,12.77,12.77,0,0,1-16.81.26A10.24,10.24,0,0,1,283.69,109.78Zm24.24-20.59h-17.4l8.54-64.84h22.81Z"/></g><path class="cls-1" d="M79.58,2.33l-9.4,14.8h0l9.4-14.8c-10.9-5.3-19.4,9.9-19.4,10h0l-22.9,36.1c-.2.3-10.1,14.4.6,19.6l9.4-14.7h0L37.88,68c10.5,5.1,18.8-9,19.4-9.9h0L80.18,22h0C80.18,21.93,90.38,7.63,79.58,2.33Z"/><path class="cls-1" d="M48.08,47.93h0l-14.5-22.8-8.8-13.9h0c-.5-.9-9-15.3-19.7-10.1l9.5,15h0l-9.5-15c-10.9,5.3-.9,19.6-.6,19.9l23.3,36.7h0s8.7,15.5,19.7,10.1l-9.6-15h0l9.6,15C58.48,62.53,48.08,47.93,48.08,47.93Z"/><path class="cls-1" d="M47,151.31l-1.61,9.29H42.3l4.12-23.72,7.92,0A7.74,7.74,0,0,1,60,138.84,6.13,6.13,0,0,1,61.71,144,7.38,7.38,0,0,1,59,149.37a9.84,9.84,0,0,1-6.38,2Zm.44-2.56,5.28,0a6.41,6.41,0,0,0,4.09-1.26,5,5,0,0,0,1.87-3.5,4,4,0,0,0-.83-3.26,4.18,4.18,0,0,0-3.18-1.32l-5.62,0Z"/><path class="cls-1" d="M72,142.64a6.36,6.36,0,0,1,3.8,1.21,6.85,6.85,0,0,1,2.34,3.23,10,10,0,0,1,.51,4.5l0,.36a11.86,11.86,0,0,1-1.53,4.65,9,9,0,0,1-3.16,3.23,7.72,7.72,0,0,1-4.25,1.09,6.37,6.37,0,0,1-3.79-1.21,6.69,6.69,0,0,1-2.32-3.19,10.28,10.28,0,0,1-.52-4.45,12,12,0,0,1,1.48-4.92,9.19,9.19,0,0,1,3.19-3.38A7.61,7.61,0,0,1,72,142.64Zm-6,9.45a10,10,0,0,0,0,2.13,5.23,5.23,0,0,0,1.15,3.06,3.45,3.45,0,0,0,2.63,1.19,4.7,4.7,0,0,0,2.7-.72,6.09,6.09,0,0,0,2.09-2.34,9.86,9.86,0,0,0,1.09-3.47,15.64,15.64,0,0,0,0-2.53,5.43,5.43,0,0,0-1.19-3.11,3.53,3.53,0,0,0-2.64-1.21A4.81,4.81,0,0,0,68,146.89a8.85,8.85,0,0,0-2,4.82Z"/><path class="cls-1" d="M92,158.85a6.81,6.81,0,0,1-5.26,2.07A4.39,4.39,0,0,1,83,159.11a6.92,6.92,0,0,1-.9-4.76L84,143H87L85.05,154.4a7.54,7.54,0,0,0,0,1.4,2.92,2.92,0,0,0,.7,1.84,2.39,2.39,0,0,0,1.73.72,5.29,5.29,0,0,0,4.89-2.56L94.55,143H97.5l-3.06,17.63H91.65Z"/><path class="cls-1" d="M109.8,145.66l-1.38-.15a5,5,0,0,0-4.46,2.56l-2.17,12.53H98.83L101.9,143l2.85,0-.44,2.05a5.27,5.27,0,0,1,4.41-2.39,5.41,5.41,0,0,1,1.4.24Z"/><path class="cls-1" d="M121.32,160.59h-2.93l4.33-25h2.95Z"/><path class="cls-1" d="M133.76,160.92a6.35,6.35,0,0,1-5.15-2.43,8.35,8.35,0,0,1-1.56-6l.08-.7a11.72,11.72,0,0,1,1.56-4.79,9.05,9.05,0,0,1,3.12-3.27,7.29,7.29,0,0,1,4-1.05,5.61,5.61,0,0,1,4.27,1.81,7.44,7.44,0,0,1,1.69,4.72,13.84,13.84,0,0,1-.06,2.12l-.18,1.35H130a6,6,0,0,0,.79,4.07,3.74,3.74,0,0,0,3.23,1.74,6.27,6.27,0,0,0,4.82-2.35l1.69,1.43a7.75,7.75,0,0,1-2.86,2.5A8.11,8.11,0,0,1,133.76,160.92Zm1.87-15.82a4.31,4.31,0,0,0-3.19,1.24,8.8,8.8,0,0,0-2.16,3.83l8.57,0,.06-.26a4.82,4.82,0,0,0-.66-3.41A3.11,3.11,0,0,0,135.64,145.1Z"/><path class="cls-1" d="M154.35,155.82q.24-1.82-2-2.57l-3.06-.9q-3.88-1.34-3.75-4.43a4.88,4.88,0,0,1,2.13-3.82,7.58,7.58,0,0,1,4.73-1.46,6.32,6.32,0,0,1,4.34,1.56,4.93,4.93,0,0,1,1.6,4l-2.93,0a2.75,2.75,0,0,0-.83-2.15,3.29,3.29,0,0,0-2.3-.86,4.29,4.29,0,0,0-2.64.75,2.75,2.75,0,0,0-1.19,1.92q-.21,1.53,1.87,2.23l1.48.41a9.55,9.55,0,0,1,4.3,2,3.89,3.89,0,0,1,1.17,3.11,5,5,0,0,1-1.08,2.87,6.15,6.15,0,0,1-2.61,1.87,8.73,8.73,0,0,1-3.47.59,6.88,6.88,0,0,1-4.63-1.64,5.06,5.06,0,0,1-1.76-4.13l2.95,0a3.12,3.12,0,0,0,.94,2.38,3.61,3.61,0,0,0,2.59.9,5.09,5.09,0,0,0,2.79-.68A2.6,2.6,0,0,0,154.35,155.82Z"/><path class="cls-1" d="M176.09,160.92a6.35,6.35,0,0,1-5.15-2.43,8.35,8.35,0,0,1-1.56-6l.08-.7A11.71,11.71,0,0,1,171,147a9,9,0,0,1,3.12-3.27,7.29,7.29,0,0,1,4-1.05,5.61,5.61,0,0,1,4.27,1.81,7.43,7.43,0,0,1,1.69,4.72,13.84,13.84,0,0,1-.06,2.12l-.18,1.35H172.31a6,6,0,0,0,.79,4.07,3.74,3.74,0,0,0,3.23,1.74,6.27,6.27,0,0,0,4.82-2.35l1.69,1.43A7.74,7.74,0,0,1,180,160,8.11,8.11,0,0,1,176.09,160.92ZM178,145.1a4.31,4.31,0,0,0-3.19,1.24,8.8,8.8,0,0,0-2.16,3.83l8.57,0,.06-.26a4.82,4.82,0,0,0-.66-3.41A3.11,3.11,0,0,0,178,145.1Z"/><path class="cls-1" d="M191.61,143l-.42,2.23a7,7,0,0,1,5.41-2.54,4.37,4.37,0,0,1,3.68,1.73,6.71,6.71,0,0,1,.88,4.67l-1.92,11.55h-2.95L198.22,149a6.2,6.2,0,0,0,0-1.48,2.44,2.44,0,0,0-2.69-2.33q-2.66,0-4.66,2.83l-2.18,12.56h-2.95L188.82,143Z"/><path class="cls-1" d="M205.21,160.59l2.67-15.3h-2.72l.41-2.33h2.71l.29-2.08a6.92,6.92,0,0,1,2.05-4.15A6.1,6.1,0,0,1,215,135.2a10.21,10.21,0,0,1,2.1.28l-.36,2.47a9.68,9.68,0,0,0-1.58-.2,3.37,3.37,0,0,0-2.48,1,4.33,4.33,0,0,0-1.18,2.53l-.26,1.74h3.65l-.41,2.33h-3.65l-2.66,15.3Z"/><path class="cls-1" d="M226,160.59a3.93,3.93,0,0,1-.11-.93l0-.93a7.23,7.23,0,0,1-5.15,2.18,5.27,5.27,0,0,1-3.79-1.47,4.46,4.46,0,0,1-1.33-3.61,5.42,5.42,0,0,1,2.45-4.37,10.44,10.44,0,0,1,6-1.57l3.08,0,.2-1.4a3.22,3.22,0,0,0-.61-2.5,3,3,0,0,0-2.32-1,4.55,4.55,0,0,0-2.68.74,3.16,3.16,0,0,0-1.43,2l-3,0a4.72,4.72,0,0,1,1.21-2.75,7,7,0,0,1,2.72-1.86,8.8,8.8,0,0,1,3.44-.63A5.84,5.84,0,0,1,229,144.3a5.18,5.18,0,0,1,1.29,4.26l-1.43,8.73-.08,1.25a6.14,6.14,0,0,0,.2,1.78l0,.28Zm-4.63-2.28a5.14,5.14,0,0,0,2.68-.68,6.78,6.78,0,0,0,2.17-2l.64-3.63-2.23,0a8.46,8.46,0,0,0-4.27.88,3.24,3.24,0,0,0-1.68,2.49,2.52,2.52,0,0,0,.58,2.06A2.76,2.76,0,0,0,221.34,158.31Z"/><path class="cls-1" d="M238.81,143l-.42,2.23a7,7,0,0,1,5.41-2.54,4.37,4.37,0,0,1,3.68,1.73,6.71,6.71,0,0,1,.88,4.67l-1.92,11.55h-2.95L245.42,149a6.2,6.2,0,0,0,0-1.48,2.44,2.44,0,0,0-2.69-2.33q-2.66,0-4.66,2.83l-2.18,12.56H233L236,143Z"/><path class="cls-1" d="M258.76,138.7,258,143h3.21l-.41,2.33h-3.19l-1.84,11a3.75,3.75,0,0,0,0,.78,1.24,1.24,0,0,0,1.38,1.27,8.47,8.47,0,0,0,1.43-.16l-.23,2.43a8.11,8.11,0,0,1-2.15.29,3.08,3.08,0,0,1-2.64-1.29,5,5,0,0,1-.68-3.4l1.79-10.92h-3.11L252,143h3.11l.75-4.27Z"/><path class="cls-1" d="M272.63,155.82q.24-1.82-2-2.57l-3.06-.9q-3.88-1.34-3.75-4.43a4.88,4.88,0,0,1,2.13-3.82,7.58,7.58,0,0,1,4.73-1.46A6.32,6.32,0,0,1,275,144.2a4.93,4.93,0,0,1,1.6,4l-2.93,0a2.75,2.75,0,0,0-.83-2.15,3.29,3.29,0,0,0-2.3-.86,4.29,4.29,0,0,0-2.64.75,2.74,2.74,0,0,0-1.19,1.92q-.21,1.53,1.87,2.23l1.48.41a9.56,9.56,0,0,1,4.3,2,3.89,3.89,0,0,1,1.17,3.11,5,5,0,0,1-1.08,2.87,6.15,6.15,0,0,1-2.61,1.87,8.73,8.73,0,0,1-3.47.59,6.87,6.87,0,0,1-4.63-1.64,5.06,5.06,0,0,1-1.76-4.13l2.95,0a3.12,3.12,0,0,0,.95,2.38,3.61,3.61,0,0,0,2.59.9,5.09,5.09,0,0,0,2.79-.68A2.6,2.6,0,0,0,272.63,155.82Z"/></g></g></svg>