<?xml version="1.0" encoding="UTF-8"?>
<svg width="89px" height="64px" viewBox="0 0 89 64" version="1.1" xmlns="http://www.w3.org/2000/svg" xmlns:xlink="http://www.w3.org/1999/xlink">
    <!-- Generator: Sketch 44.1 (41455) - http://www.bohemiancoding.com/sketch -->
    <title>Page 1</title>
    <desc>Created with Sketch.</desc>
    <defs>
        <path d="M18.2026899,4.14594761 C16.2849612,1.87631797 13.3194977,0.480146704 10.3548847,0.480146704 C4.94867561,0.480146704 0.762839323,4.67036315 0.762839323,10.0822295 C0.762839323,16.716597 6.69206536,22.1276119 15.7610938,30.159002 L18.2026899,32.6031531 L20.644286,30.159002 C29.7133145,22.1276119 35.643391,16.716597 35.643391,10.0822295 C35.643391,4.67036315 31.4575547,0.480146704 26.0513456,0.480146704 C23.0867326,0.480146704 20.1221195,1.87631797 18.2026899,4.14594761 Z" id="path-1"></path>
    </defs>
    <g id="Page-1" stroke="none" stroke-width="1" fill="none" fill-rule="evenodd">
        <g id="Home-Page-Desktop" transform="translate(-250.000000, -2369.000000)">
            <g id="Group-17" transform="translate(91.000000, 1994.000000)">
                <g id="Page-1" transform="translate(159.376389, 374.809859)">
                    <g id="Group-5" transform="translate(0.000000, 0.587243)" fill="#FFFFFF">
                        <path d="M59.5414376,51.7855247 C58.627221,53.8193376 57.7198079,54.0738835 56.7307531,54.1888122 C51.3874761,54.808576 46.0578061,55.6062666 40.6983708,55.991065 C34.7844526,56.4150243 30.6777067,53.205533 29.281294,47.465907 C29.0151082,46.3762124 29.146075,45.1460493 27.9282535,44.5365013 C20.9683014,41.0537351 14.064478,37.4432702 7.00332422,34.1792942 C4.62806198,33.0810863 2.13288854,33.9885977 0.772194097,36.402101 C-0.553632552,38.7492011 -0.154778993,41.0937473 1.83608707,42.9777272 C2.75200451,43.8435236 3.80909401,44.5969453 4.9010513,45.229479 C14.2133039,50.6251702 23.5842365,55.9195538 32.8556682,61.3824995 C35.7667039,63.0979173 38.7168595,63.3686383 41.8328498,62.5632858 C48.6805446,60.7908294 55.5741628,59.1503281 62.3223569,57.047558 C69.2755055,54.8800872 75.3629122,55.6709672 80.8907334,60.6350371 C83.5730023,63.0425812 85.284926,62.4943286 86.6745352,59.2439738 C89.4520528,52.7526287 87.2477278,42.4975805 82.0277637,37.6237509 C75.7541119,31.7657908 67.6409713,30.5960717 60.0806128,34.4721497 C57.2962918,35.8989686 54.4226752,37.0227162 51.3219927,37.5931032 C46.5927291,38.4640076 41.8575124,39.3289528 37.1801253,40.4322686 C33.9833438,41.1865416 31.1292872,42.8125703 31.2866174,46.6375688 C31.4507512,50.606441 34.2367731,52.635146 37.8128482,53.4583762 C40.6039727,54.1002745 43.4469736,53.5384007 46.2644615,53.2038304 C50.43499,52.7092112 54.6165741,52.306535 59.5414376,51.7855247" id="Fill-1"></path>
                        <path d="M36.9127488,32.6032382 L34.4711527,30.1590872 C25.4021242,22.1276971 19.4720478,16.7166821 19.4720478,10.0823146 C19.4720478,4.66959696 23.657884,0.480231837 29.0640932,0.480231837 C32.0295566,0.480231837 34.9941696,1.8764031 36.9127488,4.14603274 C38.831328,1.8764031 41.795941,0.480231837 44.7614044,0.480231837 C50.1667631,0.480231837 54.3525994,4.66959696 54.3525994,10.0823146 C54.3525994,16.7166821 48.4233734,22.1276971 39.3543449,30.1590872 L36.9127488,32.6032382 Z" id="Fill-3"></path>
                    </g>
                    <g id="Group-8" transform="translate(18.709549, 0.587243)">
                        <mask id="mask-2" fill="white">
                            <use xlink:href="#path-1"></use>
                        </mask>
                        <g id="Clip-7"></g>
                        <polygon id="Fill-6" fill="#FFFFFF" mask="url(#mask-2)" points="-7.95666076 41.3326288 44.3628911 41.3326288 44.3628911 -8.24932901 -7.95666076 -8.24932901"></polygon>
                    </g>
                </g>
            </g>
        </g>
    </g>
</svg>