<?xml version="1.0" encoding="utf-8"?>
<!-- Generator: Adobe Illustrator 21.1.0, SVG Export Plug-In . SVG Version: 6.00 Build 0)  -->
<svg version="1.1" id="Calque_1" xmlns="http://www.w3.org/2000/svg" xmlns:xlink="http://www.w3.org/1999/xlink" x="0px" y="0px"
	 viewBox="0 0 18 23" style="enable-background:new 0 0 18 23;" xml:space="preserve">
<title>Page 1</title>
<desc>Created with Sketch.</desc>
<g id="Page-1_1_">
	<g id="Home-Page-Copy" transform="translate(-227.000000, -618.000000)">
		<g id="Group-11">
			<g id="réseaux" transform="translate(89.000000, 618.000000)">
				<path id="Page-1" d="M145.3,15.2c-0.1,0.8-0.3,1.6-0.5,2.3c-0.2,0.8-0.4,1.5-0.7,2.1c-0.3,0.7-0.6,1.3-1,1.9
					c-0.4,0.6-0.8,1-1.4,1.4c-0.2-1.2-0.2-2.3-0.1-3.4c0.1-1.1,0.2-2.1,0.5-3.1c0.2-1,0.5-1.9,0.7-2.9c0.3-0.9,0.5-1.9,0.7-2.8
					c-0.3-0.6-0.5-1.2-0.5-2s0.1-1.4,0.4-2.1s0.7-1.1,1.2-1.4c0.5-0.3,1.1-0.4,1.8-0.1c0.9,0.3,1.2,0.9,1.1,1.9
					c-0.2,0.9-0.4,1.9-0.7,2.8s-0.5,1.9-0.5,2.8c0,0.8,0.5,1.4,1.5,1.6c1.1,0.2,2.1-0.1,2.8-0.9c0.8-0.8,1.3-1.8,1.6-3
					s0.4-2.4,0.3-3.7c-0.1-1.3-0.6-2.3-1.3-3c-1-1-2.2-1.6-3.5-1.6s-2.5,0.2-3.7,0.8c-1.1,0.6-2.1,1.5-2.8,2.6s-0.9,2.5-0.7,3.9
					c0.1,0.7,0.4,1.3,0.8,1.7c0.4,0.4,0.3,1.1-0.2,2.1c-1.3-0.3-2.1-0.9-2.6-1.8c-0.5-0.9-0.7-2.1-0.6-3.4c0-1.1,0.3-2.1,0.7-3
					c0.5-0.9,1-1.7,1.8-2.4c0.7-0.7,1.5-1.2,2.4-1.7c0.9-0.4,1.8-0.7,2.8-0.8c1.2-0.1,2.4-0.1,3.5,0.1c1.1,0.2,2.1,0.6,3,1.1
					c0.9,0.5,1.7,1.2,2.3,2.1c0.6,0.8,1,1.8,1.2,3c0.2,1.3,0.1,2.6-0.1,3.8c-0.3,1.3-0.7,2.4-1.3,3.4c-0.6,1-1.5,1.8-2.4,2.3
					c-1,0.6-2.1,0.8-3.4,0.7c-0.7-0.1-1.3-0.2-1.7-0.5C146.3,15.9,145.9,15.6,145.3,15.2z"/>
			</g>
		</g>
	</g>
</g>
</svg>
