<?xml version="1.0" encoding="UTF-8"?>
<svg width="59px" height="65px" viewBox="0 0 59 65" version="1.1" xmlns="http://www.w3.org/2000/svg" xmlns:xlink="http://www.w3.org/1999/xlink">
    <!-- Generator: Sketch 44.1 (41455) - http://www.bohemiancoding.com/sketch -->
    <title>share-alt</title>
    <desc>Created with Sketch.</desc>
    <defs></defs>
    <g id="Page-1" stroke="none" stroke-width="1" fill="none" fill-rule="evenodd">
        <g id="Home-Page-Desktop" transform="translate(-1120.000000, -2368.000000)" fill="#FFFFFF">
            <g id="Group-17" transform="translate(91.000000, 1994.000000)">
                <g id="group" transform="translate(584.088194, 374.809859)">
                    <g id="share-alt" transform="translate(474.024306, 32.000000) scale(-1, 1) translate(-474.024306, -32.000000) translate(444.524306, 0.000000)">
                        <path d="M48.8929398,22.3472535 C46.2853164,22.3472535 44.0036458,23.304993 42.3738812,24.9012254 L19.231223,11.8121197 C19.5571759,11.1736268 19.5571759,10.2158873 19.5571759,9.57739437 C19.5571759,4.15020423 15.3197878,0 9.77858796,0 C4.23738812,0 0,4.15020423 0,9.57739437 C0,15.0045845 4.23738812,19.1547887 9.77858796,19.1547887 C12.3862114,19.1547887 14.6678819,18.1970493 16.2976466,16.6008169 L39.4403048,29.6899225 C39.1143519,30.3284155 39.1143519,31.2861549 39.1143519,31.9246479 C39.1143519,32.5631408 39.1143519,33.5208803 39.4403048,34.1593732 L16.2976466,47.5677254 C14.6678819,45.971493 12.3862114,45.0137535 9.77858796,45.0137535 C4.56334105,45.0137535 0.325952932,49.1639577 0.325952932,54.2719014 C0.325952932,59.3798451 4.56334105,63.5300493 9.77858796,63.5300493 C14.9938349,63.5300493 19.231223,59.3798451 19.231223,54.2719014 C19.231223,53.6334085 19.231223,52.9949155 18.9052701,52.0371761 L42.0479282,38.6288239 C43.6776929,40.2250563 45.9593634,41.1827958 48.5669869,41.1827958 C54.1081867,41.1827958 58.3455748,37.0325915 58.3455748,31.6054014 C58.3455748,26.1782113 54.4341397,22.3472535 48.8929398,22.3472535 L48.8929398,22.3472535 Z" id="Shape"></path>
                    </g>
                </g>
            </g>
        </g>
    </g>
</svg>