<svg xmlns="http://www.w3.org/2000/svg" width="21" height="18" viewBox="0 0 21 18">
    <path fill="#000" fill-rule="evenodd" d="M18.86 4.508v.555c0 1.42-.268 2.855-.803 4.305a12.332 12.332 0 0 1-2.352 3.928c-1.033 1.17-2.31 2.123-3.834 2.863-1.523.74-3.28 1.11-5.272 1.11a11.92 11.92 0 0 1-3.5-.51A12.543 12.543 0 0 1 0 15.338l.502.044c.17.014.345.022.523.022 1.011 0 1.97-.163 2.876-.489a8.922 8.922 0 0 0 2.475-1.353 4.171 4.171 0 0 1-2.508-.855 4.145 4.145 0 0 1-1.505-2.12c.119.03.249.049.39.056.141.008.279.011.413.011.193 0 .386-.01.58-.033.192-.022.378-.055.557-.1a4.31 4.31 0 0 1-2.464-1.487 4.107 4.107 0 0 1-.992-2.73V6.262c.283.147.59.27.925.365.335.096.673.152 1.015.167a4.297 4.297 0 0 1-1.394-1.52A4.158 4.158 0 0 1 .87 3.22c0-.4.052-.78.156-1.143.105-.363.253-.7.446-1.01.52.65 1.111 1.239 1.773 1.764.661.525 1.367.984 2.117 1.376a12.114 12.114 0 0 0 4.982 1.343 2.813 2.813 0 0 1-.088-.488 5.367 5.367 0 0 1-.023-.489 4.244 4.244 0 0 1 1.26-3.04c.394-.385.85-.692 1.371-.921a4.098 4.098 0 0 1 1.672-.344 4.287 4.287 0 0 1 3.143 1.354c.49-.09.966-.222 1.427-.4.46-.177.9-.384 1.315-.621a4.316 4.316 0 0 1-.735 1.343 4.314 4.314 0 0 1-1.16 1.01 8.174 8.174 0 0 0 1.271-.234A7.515 7.515 0 0 0 21 2.29c-.282.429-.606.832-.97 1.209a8.35 8.35 0 0 1-1.17 1.01z"/>
</svg>
