<?xml version="1.0" encoding="utf-8"?>
<!-- Generator: Adobe Illustrator 21.1.0, SVG Export Plug-In . SVG Version: 6.00 Build 0)  -->
<svg version="1.1" id="Calque_1" xmlns="http://www.w3.org/2000/svg" xmlns:xlink="http://www.w3.org/1999/xlink" x="0px" y="0px"
	 viewBox="0 0 21 18" style="enable-background:new 0 0 21 18;" xml:space="preserve">
<title>Page 1</title>
<desc>Created with Sketch.</desc>
<g id="Page-1_1_">
	<g id="Home-Page-Copy" transform="translate(-129.000000, -624.000000)">
		<g id="Group-11">
			<g id="réseaux" transform="translate(89.000000, 618.000000)">
				<path id="Page-1" d="M58.9,10.5v0.3v0.3c0,1.4-0.3,2.9-0.8,4.3s-1.3,2.8-2.4,3.9c-1,1.2-2.3,2.1-3.8,2.9
					c-1.5,0.7-3.3,1.1-5.3,1.1c-1.2,0-2.4-0.2-3.5-0.5C42,22.4,41,21.9,40,21.3c0.2,0,0.3,0,0.5,0c0.2,0,0.3,0,0.5,0
					c1,0,2-0.2,2.9-0.5c0.9-0.3,1.7-0.8,2.5-1.4c-0.9,0-1.8-0.3-2.5-0.9c-0.7-0.6-1.2-1.3-1.5-2.1c0.1,0,0.2,0,0.4,0.1s0.3,0,0.4,0
					c0.2,0,0.4,0,0.6,0c0.2,0,0.4-0.1,0.6-0.1c-1-0.2-1.8-0.7-2.5-1.5c-0.7-0.8-1-1.7-1-2.7v0v0c0.3,0.1,0.6,0.3,0.9,0.4
					c0.3,0.1,0.7,0.2,1,0.2c-0.6-0.4-1-0.9-1.4-1.5c-0.3-0.6-0.5-1.3-0.5-2.1c0-0.4,0.1-0.8,0.2-1.1c0.1-0.4,0.3-0.7,0.4-1
					c0.5,0.7,1.1,1.2,1.8,1.8c0.7,0.5,1.4,1,2.1,1.4c0.8,0.4,1.5,0.7,2.4,0.9c0.8,0.2,1.7,0.4,2.6,0.4c0-0.2-0.1-0.3-0.1-0.5
					c0-0.2,0-0.3,0-0.5c0-0.6,0.1-1.2,0.3-1.7c0.2-0.5,0.5-1,0.9-1.4c0.4-0.4,0.9-0.7,1.4-0.9c0.5-0.2,1.1-0.3,1.7-0.3
					c0.6,0,1.2,0.1,1.8,0.4c0.5,0.2,1,0.6,1.4,1c0.5-0.1,1-0.2,1.4-0.4C59.6,7,60,6.8,60.4,6.6c-0.2,0.5-0.4,0.9-0.7,1.3
					c-0.3,0.4-0.7,0.7-1.2,1c0.4,0,0.9-0.1,1.3-0.2c0.4-0.1,0.8-0.3,1.2-0.4c-0.3,0.4-0.6,0.8-1,1.2S59.3,10.2,58.9,10.5z"/>
			</g>
		</g>
	</g>
</g>
</svg>
