<?xml version="1.0" encoding="utf-8"?>
<!-- Generator: Adobe Illustrator 21.1.0, SVG Export Plug-In . SVG Version: 6.00 Build 0)  -->
<svg version="1.1" id="Calque_1" xmlns="http://www.w3.org/2000/svg" xmlns:xlink="http://www.w3.org/1999/xlink" x="0px" y="0px"
	 viewBox="0 0 21 19" style="enable-background:new 0 0 21 19;" xml:space="preserve">
<title>Page 1</title>
<desc>Created with Sketch.</desc>
<g id="Page-1_1_">
	<g id="Home-Page-Copy" transform="translate(-679.000000, -2815.000000)">
		<g id="Group-20" transform="translate(0.000000, 2278.000000)">
			<g id="Group-19" transform="translate(90.000000, 127.000000)">
				<g id="Lire-la-suite" transform="translate(462.765101, 403.400000)">
					<path id="Page-1" d="M126.8,16.1c0-0.4,0.1-0.7,0.4-0.9c0.3-0.3,0.6-0.4,0.9-0.4h14l-5.3-5.3c-0.3-0.3-0.4-0.6-0.4-0.9
						c0-0.4,0.1-0.7,0.4-0.9c0.3-0.3,0.6-0.4,0.9-0.4s0.7,0.1,1,0.4l8.5,8.5l-8.5,8.5c-0.3,0.3-0.6,0.4-1,0.4
						c-0.3,0-0.7-0.1-0.9-0.4c-0.3-0.3-0.4-0.6-0.4-0.9c0-0.4,0.1-0.7,0.4-0.9l5.3-5.3h-14c-0.4,0-0.7-0.1-0.9-0.4
						C126.9,16.8,126.8,16.5,126.8,16.1z"/>
				</g>
			</g>
		</g>
	</g>
</g>
</svg>
