<?xml version="1.0" encoding="utf-8"?>
<!-- Generator: Adobe Illustrator 21.1.0, SVG Export Plug-In . SVG Version: 6.00 Build 0)  -->
<svg version="1.1" id="Calque_1" xmlns="http://www.w3.org/2000/svg" xmlns:xlink="http://www.w3.org/1999/xlink" x="0px" y="0px"
	 viewBox="0 0 19 19" style="enable-background:new 0 0 19 19;" xml:space="preserve">
<title>Page 1</title>
<desc>Created with Sketch.</desc>
<g id="Page-1_1_">
	<g id="Home-Page-Copy" transform="translate(-553.000000, -2621.000000)">
		<g id="Group-20" transform="translate(0.000000, 2278.000000)">
			<g id="Group-19" transform="translate(90.000000, 127.000000)">
				<g id="Group-4" transform="translate(459.000000, 84.000000)">
					<g id="Group-6" transform="translate(4.496644, 132.700000)">
						<g id="Group-7">
							<path id="Page-1" d="M9,0C6.5,0,4.4,0.9,2.6,2.6S0,6.5,0,9s0.9,4.6,2.6,6.4S6.5,18,9,18s4.6-0.9,6.4-2.6S18,11.5,18,9
								s-0.9-4.6-2.6-6.4S11.5,0,9,0z M14.5,14.5C13,16,11.2,16.8,9,16.8S5,16,3.5,14.5C2,13,1.2,11.2,1.2,9S2,5,3.5,3.5
								C5,2,6.8,1.2,9,1.2s4,0.8,5.5,2.3C16,5,16.8,6.8,16.8,9S16,13,14.5,14.5z M12.6,8.4h-3V4.1c0-0.2-0.1-0.3-0.2-0.4
								C9.3,3.6,9.1,3.5,9,3.5S8.6,3.6,8.5,3.7C8.4,3.8,8.4,4,8.4,4.1V9c0,0.2,0.1,0.3,0.2,0.4C8.6,9.5,8.8,9.6,9,9.6h3.6
								c0.2,0,0.3-0.1,0.4-0.2c0.1-0.1,0.2-0.3,0.2-0.4c0-0.2-0.1-0.3-0.2-0.4C12.9,8.4,12.7,8.4,12.6,8.4z"/>
						</g>
					</g>
				</g>
			</g>
		</g>
	</g>
</g>
</svg>
