<?xml version="1.0" encoding="UTF-8"?>
<svg width="142px" height="142px" viewBox="0 0 142 142" version="1.1" xmlns="http://www.w3.org/2000/svg" xmlns:xlink="http://www.w3.org/1999/xlink">
    <!-- Generator: Sketch 44.1 (41455) - http://www.bohemiancoding.com/sketch -->
    <title>Layer_1</title>
    <desc>Created with Sketch.</desc>
    <defs></defs>
    <g id="Page-1" stroke="none" stroke-width="1" fill="none" fill-rule="evenodd">
        <g id="Home-Page-Copy" transform="translate(-1070.000000, -808.000000)" fill="#000000">
            <g id="Group-24" transform="translate(160.000000, 808.000000)">
                <g id="Group-23" transform="translate(840.000000, 0.000000)">
                    <g id="Group-10" transform="translate(0.000000, 0.692847)">
                        <g id="003-support" transform="translate(70.000000, 0.000000)">
                            <g id="Layer_1">
                                <g id="Group">
                                    <path d="M138.537918,90.3293 L137.144266,90.3293 L137.144266,84.2300824 C142.657305,78.6686 142.029953,68.7455176 141.925672,67.4870235 L141.925672,57.0969824 C141.925672,53.7516882 139.195223,51.0301118 135.839918,51.0301118 L135.606117,51.0301118 C134.545,51.0301118 133.546008,51.3021588 132.676535,51.7801765 C131.560504,50.3834471 129.840141,49.4860235 127.913711,49.4860235 L127.67991,49.4860235 C126.652352,49.4860235 125.675547,49.7376118 124.816613,50.1915765 C123.699473,48.8697706 122.026813,48.0284706 120.161121,48.0284706 L119.92732,48.0284706 C119.07643,48.0284706 118.258266,48.2034765 117.512211,48.5244588 C116.422527,46.8794588 114.551012,45.7918235 112.429609,45.7918235 L112.195809,45.7918235 C108.840227,45.7918235 106.110055,48.5136765 106.110055,51.8589706 L106.110055,57.7054941 C103.665547,57.4442294 101.75548,57.9092529 100.311074,59.1146647 C97.1787539,61.7281412 97.4938164,66.9139 97.7988945,71.9293529 C98.2151875,78.7747647 104.336996,84.5181647 106.696082,86.4888471 L106.696082,90.3290235 L105.520977,90.3290235 C104.283469,90.3290235 103.280871,91.3284647 103.280871,92.5620765 L103.280871,104.049153 L103.280871,138.489924 C103.280871,139.723535 104.283469,140.722976 105.520977,140.722976 L138.538473,140.722976 C139.77598,140.722976 140.778578,139.723535 140.778578,138.489924 L140.778578,104.049429 L140.778578,92.5623529 C140.778301,91.3292941 139.775426,90.3293 138.537918,90.3293 Z M102.270785,71.6592412 C102.055012,68.1165471 101.787098,63.7071176 103.186297,62.5401353 C103.706039,62.1060765 104.724723,61.9952118 106.109777,62.2111353 L106.109777,65.2442941 C106.109777,66.4779059 107.112375,67.4773471 108.349883,67.4773471 C109.587391,67.4773471 110.589988,66.4779059 110.589988,65.2442941 L110.589988,51.8595235 C110.589988,50.9767529 111.31025,50.2584824 112.195531,50.2584824 L112.429332,50.2584824 C113.314891,50.2584824 114.03543,50.9767529 114.03543,51.8595235 L114.03543,52.8954588 L114.03543,60.4807059 C114.03543,61.7143176 115.038027,62.7137588 116.275535,62.7137588 C117.513043,62.7137588 118.515641,61.7143176 118.515641,60.4807059 L118.515641,53.3380882 C118.791598,52.8257882 119.328258,52.4956824 119.927043,52.4956824 L120.160844,52.4956824 C121.046402,52.4956824 121.766941,53.2139529 121.766941,54.0967235 L121.766941,54.4121765 L121.766941,60.4812588 C121.766941,61.7148706 122.769539,62.7143118 124.007047,62.7143118 C125.244555,62.7143118 126.247152,61.7148706 126.247152,60.4812588 L126.247152,54.8285412 C126.516453,54.2963353 127.063098,53.9537882 127.679355,53.9537882 L127.913156,53.9537882 C128.798437,53.9537882 129.518699,54.6720588 129.518699,55.5545529 L129.518699,57.0989176 L129.518699,61.5774647 C129.518699,62.8110765 130.521297,63.8105176 131.758805,63.8105176 C132.996035,63.8105176 133.99891,62.8110765 133.99891,61.5774647 L133.99891,57.0989176 C133.99891,56.2164235 134.719727,55.4981529 135.605562,55.4981529 L135.839363,55.4981529 C136.724645,55.4981529 137.444906,56.2164235 137.444906,57.0989176 L137.444906,67.5865529 C137.444906,67.6578824 137.448512,67.7294882 137.455168,67.8008176 C137.713652,70.4701412 137.498434,78.1444118 133.456426,81.5552294 C132.953324,81.9796118 132.663777,82.6027765 132.663777,83.2599471 L132.663777,90.3315118 L111.175738,90.3315118 L111.175738,85.4186294 C111.175738,84.7122471 110.83932,84.0470588 110.272984,83.6259941 C110.196715,83.5687647 102.649359,77.8859118 102.270785,71.6592412 Z M136.297813,136.257424 L107.760527,136.257424 L107.760527,106.282759 L136.297813,106.282759 L136.297813,136.257424 Z M136.297813,101.816653 L107.760527,101.816653 L107.760527,94.7956824 L108.935633,94.7956824 L134.90416,94.7956824 L136.297813,94.7956824 L136.297813,101.816653 Z" id="Shape"></path>
                                    <path d="M95.1671797,36.5980706 L105.415586,40.9126706 C106.15443,41.2237 106.932934,41.3793529 107.711437,41.3793529 C108.463316,41.3793529 109.215473,41.2344824 109.932406,40.9439118 C111.393453,40.3525412 112.535832,39.2292412 113.148762,37.7819176 L114.395422,34.8397176 C115.008906,33.3921176 115.02,31.7927353 114.426762,30.3365647 C113.833523,28.8803941 112.706953,27.7418882 111.251453,27.1295059 L99.0860469,22.0324941 L99.6485,20.0051353 C99.6557109,19.9785941 99.6629219,19.9520529 99.6687461,19.9255118 C100.044547,18.3485235 99.781625,16.7206647 98.928793,15.3413529 C98.0759609,13.9614882 96.7352812,12.9957765 95.1555312,12.6217118 L94.9258906,12.5672471 C93.8927852,12.3225706 92.8585703,12.3574059 91.9017344,12.6225412 C91.1398711,11.0060176 89.673832,9.73701765 87.7989883,9.29272941 L87.5723984,9.23909412 C86.5739609,9.00271176 85.5658164,9.02234118 84.6261758,9.26563529 C84.5476875,9.11081176 84.4622656,8.95902941 84.3701875,8.80973529 C83.5170781,7.42987059 82.1763984,6.46415882 80.5966484,6.09009412 L80.3672852,6.03562941 C79.5408008,5.83961176 78.7054414,5.82053529 77.9069687,5.96153529 C77.7663555,5.5789 77.586082,5.20787647 77.3667031,4.85288824 C76.5138711,3.47302353 75.1731914,2.50703529 73.5881719,2.13186471 L73.3640781,2.07905882 C71.781832,1.70444118 70.1485547,1.96653529 68.7648867,2.81668235 C67.3912031,3.66047059 66.4266016,4.98310588 66.0452539,6.54461176 L65.6464336,8.02151765 L49.8719531,1.41359412 C49.8639102,1.41 49.8555898,1.40806471 49.8475469,1.40474706 C49.8053906,1.38788235 49.7626797,1.37322941 49.7196914,1.35857647 C49.691125,1.34917647 49.6625586,1.33894706 49.6339922,1.33065294 C49.5973828,1.31987059 49.5602187,1.3113 49.5227773,1.30217647 C49.4853359,1.29360588 49.4481719,1.28448235 49.4104531,1.27784706 C49.3805,1.27231765 49.3505469,1.26844706 49.3200391,1.26374706 C49.2742773,1.25683529 49.2282383,1.25158235 49.1827539,1.24798824 C49.1711055,1.24715882 49.1597344,1.24467059 49.1480859,1.24384118 L34.1482266,0.280894118 C33.2044258,0.218135294 32.3388359,0.747852941 31.9577656,1.60104118 C31.5766953,2.45450588 31.7683398,3.45422353 32.438957,4.10697059 L42.9832891,14.3731529 C42.9868945,14.3767471 42.9902227,14.3797882 42.9935508,14.3833824 L42.9988203,14.3883588 C43.0049219,14.3947176 43.0115781,14.3994176 43.017957,14.4052235 C43.0615,14.4469706 43.1072617,14.4873353 43.1546875,14.5257647 C43.177707,14.5445647 43.2015586,14.5608765 43.2251328,14.5788471 C43.2506484,14.5976471 43.2747773,14.6175529 43.301125,14.6355235 C43.3077812,14.6402235 43.3152695,14.6435412 43.3219258,14.6482412 C43.3601992,14.6739529 43.399582,14.6969 43.4392422,14.7195706 C43.7249062,14.9020412 44.0236055,15.0659882 44.3350625,15.1967588 L53.9283828,19.2354412 C53.2208789,21.3062059 52.7890547,23.7662412 52.4021602,25.9818765 C51.1779648,32.9826647 56.1887344,40.2433353 57.873043,42.4459765 L57.8808086,52.5990824 L56.0159492,52.5990824 C54.7784414,52.5990824 53.7758437,53.5985235 53.7758437,54.8321353 L53.7758437,66.3197647 L53.7758437,138.491029 C53.7758437,139.724641 54.7784414,140.724082 56.0159492,140.724082 L89.0337227,140.724082 C90.2712305,140.724082 91.2738281,139.724641 91.2738281,138.491029 L91.2738281,82.6096882 C91.2738281,81.3760765 90.2712305,80.3766353 89.0337227,80.3766353 C87.7962148,80.3766353 86.7936172,81.3760765 86.7936172,82.6096882 L86.7936172,136.2577 L58.256332,136.2577 L58.256332,68.5528176 L86.7936172,68.5528176 L86.7936172,72.2752176 L86.7936172,74.7562647 C86.7936172,75.9898765 87.7962148,76.9893176 89.0337227,76.9893176 C90.2712305,76.9893176 91.2738281,75.9896 91.2738281,74.7562647 L91.2738281,72.2752176 L91.2738281,66.3197647 L91.2738281,54.8321353 C91.2738281,53.5985235 90.2712305,52.5988059 89.0337227,52.5988059 L88.0943594,52.5988059 L88.1146055,46.8299706 C91.8981289,44.3317824 94.0220273,39.9925765 95.1671797,36.5980706 Z M107.054965,30.2165765 L109.51223,31.2458765 C109.861961,31.3926824 110.133203,31.6669412 110.276035,32.0172294 C110.419145,32.3680706 110.416371,32.7531941 110.268547,33.1018235 L109.021887,36.0445765 C108.87434,36.3932059 108.599215,36.6635941 108.247266,36.8059765 C107.895594,36.9486353 107.508977,36.9458706 107.159246,36.7985118 L104.539457,35.6956706 L107.054965,30.2165765 Z M96.3586484,31.8640647 L97.882375,26.3733588 L102.922543,28.4847647 L100.410363,33.9572235 L96.2984648,32.2265176 C96.3250898,32.0755647 96.3447812,31.9530882 96.3586484,31.8640647 Z M43.8854883,9.00907059 L39.8967305,5.12548824 L45.5625859,5.48932353 L43.8854883,9.00907059 Z M47.5605703,11.7063176 L50.109082,6.35771765 L64.4710508,12.3745471 L62.9071094,18.1668824 L47.5605703,11.7063176 Z M86.7933398,64.0867118 L58.256332,64.0867118 L58.256332,57.0654647 L86.7936172,57.0654647 L86.7936172,64.0867118 L86.7933398,64.0867118 Z M84.8649687,43.5573882 C84.1150312,43.9367059 83.6410508,44.7028059 83.6382773,45.5413412 L83.6141484,52.3693353 L62.3601875,52.3693353 L62.3521445,41.6679882 C62.3518672,41.1449059 62.1652148,40.6359235 61.8282422,40.2344882 C61.7677812,40.1609471 55.7411016,32.8936412 56.8158086,26.7490824 C57.1547227,24.8113 57.5302461,22.6675471 58.068293,20.9783118 L62.1191758,22.6841353 C62.3632383,23.3374353 62.9082187,23.8682588 63.6351367,24.0634471 C64.8277148,24.3833235 66.0591211,23.6783235 66.3802852,22.4875647 L70.37875,7.67814118 C70.3848516,7.65657647 70.3901211,7.63501176 70.3951133,7.61344706 C70.4944023,7.19791176 70.7495586,6.84485882 71.1150977,6.62036471 C71.480082,6.39614706 71.9105195,6.32730588 72.3315273,6.42683529 L72.5558984,6.47964118 C72.9727461,6.57861765 73.3269141,6.83324706 73.5521172,7.19763529 C73.777043,7.56174706 73.8463789,7.99110588 73.7468125,8.40802353 L73.5193906,9.36322941 L70.8804648,18.4779118 C70.5373906,19.6631412 71.222707,20.9009 72.4116797,21.2428941 C72.6191328,21.3023353 72.82825,21.3310882 73.0340391,21.3310882 C74.0066836,21.3310882 74.9019492,20.6943765 75.1851172,19.7167765 L77.7350156,10.9095294 C78.1208008,10.4514176 78.7345625,10.2407471 79.3294648,10.3823 L79.5588281,10.4367647 C79.9765078,10.5357412 80.3301211,10.7903706 80.5553242,11.1547588 C80.7760898,11.5122353 80.8451484,11.9330235 80.7533477,12.3430294 L78.4064648,20.2445588 C78.0553477,21.4273 78.7323437,22.6697588 79.9188203,23.0194941 C80.1309883,23.0819765 80.3450977,23.1121118 80.5556016,23.1121118 C81.5221445,23.1121118 82.4143594,22.4836941 82.7025195,21.5121765 L84.8749531,14.1973176 C85.254082,13.6817 85.9000156,13.4348118 86.5367969,13.5863176 L86.7633867,13.6399529 C87.6248164,13.8442647 88.1595352,14.7085118 87.9545781,15.5677824 L87.6153867,16.9935412 L85.7053203,23.0615176 C85.3350664,24.2381765 85.9918164,25.4914176 87.1721914,25.8607824 C87.3954531,25.9304529 87.6212109,25.9639059 87.8433633,25.9639059 C88.7963164,25.9639059 89.6796562,25.3529059 89.9802969,24.3985294 L91.9142148,18.2545235 C91.9225352,18.2274294 91.9278047,18.2003353 91.9350156,18.1732412 C91.9419492,18.1494647 91.9502695,18.1265176 91.9558164,18.1021882 C92.1604961,17.2434706 93.0274727,16.7101588 93.887793,16.9144706 L94.1174336,16.9689353 C94.9683242,17.1704824 95.4999922,18.0164824 95.3158359,18.8646941 L92.0026875,30.8065647 C91.9766172,30.8997353 91.9566484,30.9981588 91.9433359,31.0935412 C91.9300234,31.1880941 90.5252773,40.6961941 84.8649687,43.5573882 Z" id="Shape"></path>
                                    <path d="M44.3112109,79.8024059 L44.3112109,69.4134706 C44.3112109,66.0679 41.5807617,63.3463235 38.2249023,63.3463235 L37.9911016,63.3463235 C36.9299844,63.3463235 35.9312695,63.6183706 35.0617969,64.0963882 C33.9457656,62.6993824 32.225125,61.8022353 30.2986953,61.8022353 L30.0648945,61.8022353 C29.0376133,61.8022353 28.0610859,62.0541 27.2021523,62.5083412 C26.0847344,61.1859824 24.4120742,60.3446824 22.5461055,60.3446824 L22.3123047,60.3446824 C21.4616914,60.3446824 20.6435273,60.5196882 19.89775,60.8403941 C18.8080664,59.1956706 16.9365508,58.1080353 14.8151484,58.1080353 L14.5813477,58.1080353 C11.2252109,58.1080353 8.49503906,60.8298882 8.49503906,64.1751824 L8.49503906,70.0219824 C6.04997656,69.7590588 4.14157422,70.2257412 2.69661328,71.4308765 C-0.435707031,74.0438 -0.120644531,79.2301118 0.184433594,84.2458412 C0.600726563,91.0912529 6.72198047,96.8346529 9.08106641,98.8053353 L9.08106641,102.645512 L7.90596094,102.645512 C6.66845313,102.645512 5.66585547,103.644953 5.66585547,104.878565 L5.66585547,116.366194 L5.66585547,138.491029 C5.66585547,139.724641 6.66845313,140.724082 7.90596094,140.724082 L40.9240117,140.724082 C42.1615195,140.724082 43.1641172,139.724641 43.1641172,138.491029 L43.1641172,116.366194 L43.1641172,104.878565 C43.1641172,103.644953 42.1615195,102.645512 40.9240117,102.645512 L39.5303594,102.645512 L39.5303594,96.5462941 C45.0428438,90.9848118 44.4154922,81.0611765 44.3112109,79.8024059 Z M38.6833516,136.257424 L10.1455117,136.257424 L10.1455117,118.598694 L38.6833516,118.598694 L38.6833516,136.257424 Z M38.6833516,114.132865 L10.1455117,114.132865 L10.1455117,107.111618 L11.3203398,107.111618 L37.2894219,107.111618 L38.6833516,107.111618 L38.6833516,114.132865 Z M35.8422422,93.8695059 C35.3391406,94.2938882 35.0495937,94.9170529 35.0495937,95.5742235 L35.0495937,102.645788 L13.5604453,102.645788 L13.5604453,102.645512 L13.5604453,97.7323529 C13.5604453,97.0254176 13.224582,96.3602294 12.6554727,95.9394412 C10.5373984,94.3724059 4.97166406,89.1692294 4.65604687,83.9751765 C4.44027344,80.4324824 4.17235937,76.0227765 5.57155859,74.8557941 C6.09074609,74.4222882 7.11081641,74.3114235 8.49448437,74.5267941 L8.49448437,77.5599529 C8.49448437,78.7935647 9.49708203,79.7930059 10.7345898,79.7930059 C11.9720977,79.7930059 12.9746953,78.7935647 12.9746953,77.5599529 L12.9746953,64.1743529 C12.9746953,63.2915824 13.6952344,62.5733118 14.580793,62.5733118 L14.8148711,62.5733118 C15.7004297,62.5733118 16.4209687,63.2915824 16.4209687,64.1743529 L16.4209687,65.2102882 L16.4209687,72.7955353 C16.4209687,74.0291471 17.4235664,75.0285882 18.6610742,75.0285882 C19.898582,75.0285882 20.9011797,74.0291471 20.9011797,72.7955353 L20.9011797,65.6529176 C21.1774141,65.1403412 21.7135195,64.8102353 22.3120273,64.8102353 L22.5458281,64.8102353 C23.4313867,64.8102353 24.1519258,65.5285059 24.1519258,66.4112765 L24.1519258,66.7272824 L24.1519258,72.7960882 C24.1519258,74.0297 25.1545234,75.0291412 26.3920312,75.0291412 C27.6295391,75.0291412 28.6321367,74.0297 28.6321367,72.7960882 L28.6321367,67.1433706 C28.9017148,66.6108882 29.448082,66.2683412 30.0643398,66.2683412 L30.2981406,66.2683412 C31.1836992,66.2683412 31.9042383,66.9866118 31.9042383,67.8691059 L31.9042383,69.4137471 L31.9042383,73.8922941 C31.9042383,75.1259059 32.9068359,76.1253471 34.1443437,76.1253471 C35.3818516,76.1253471 36.3844492,75.1256294 36.3844492,73.8922941 L36.3844492,69.4134706 C36.3844492,68.5307 37.1049883,67.8124294 37.9905469,67.8124294 L38.2243477,67.8124294 C39.1099062,67.8124294 39.8304453,68.5307 39.8304453,69.4134706 L39.8304453,79.9005529 C39.8304453,79.9718824 39.8340508,80.0434882 39.840707,80.1148176 C40.0994687,82.7841412 39.88425,90.4586882 35.8422422,93.8695059 Z" id="Shape"></path>
                                </g>
                            </g>
                        </g>
                    </g>
                </g>
            </g>
        </g>
    </g>
</svg>