<?xml version="1.0" encoding="UTF-8"?>
<svg width="134px" height="135px" viewBox="0 0 134 135" version="1.1" xmlns="http://www.w3.org/2000/svg" xmlns:xlink="http://www.w3.org/1999/xlink">
    <!-- Generator: Sketch 44.1 (41455) - http://www.bohemiancoding.com/sketch -->
    <title>Group</title>
    <desc>Created with Sketch.</desc>
    <defs></defs>
    <g id="Page-1" stroke="none" stroke-width="1" fill="none" fill-rule="evenodd">
        <g id="Home-Page-Copy" transform="translate(-660.000000, -809.000000)" fill="#000000">
            <g id="Group-24" transform="translate(160.000000, 808.000000)">
                <g id="Group-22" transform="translate(416.000000, 1.000000)">
                    <g id="Group-9" transform="translate(0.000000, 0.692847)">
                        <g id="004-list" transform="translate(84.000000, 0.000000)">
                            <g id="Layer_1">
                                <g id="Group">
                                    <path d="M90.0815,55.0737383 C88.9472109,54.791082 87.7993125,55.4794023 87.5153477,56.613168 L85.1410352,66.1098945 L82.9970352,61.8221562 C82.4743828,60.7768516 81.2045234,60.3533906 80.1581719,60.876043 C79.1131289,61.3986953 78.6894063,62.6693398 79.2120586,63.7146445 L81.4756641,68.2418555 C82.1802109,69.6509492 83.5966328,70.5263984 85.171918,70.5263984 C87.0719961,70.5263984 88.7208242,69.2392656 89.1811875,67.3962422 L91.6201445,57.6396289 C91.9043711,56.5058633 91.2152656,55.3571797 90.0815,55.0737383 Z" id="Shape"></path>
                                    <path d="M40.905332,82.5157344 C40.905332,81.3471602 39.9584336,80.4 38.7895977,80.4 L16.2210664,80.4 C15.0522305,80.4 14.105332,81.3474219 14.105332,82.5157344 C14.105332,83.6843086 15.0522305,84.6314688 16.2210664,84.6314688 L38.7895977,84.6314688 C39.9581719,84.6314688 40.905332,83.6843086 40.905332,82.5157344 Z" id="Shape"></path>
                                    <path d="M90.0815,15.5790703 C88.9472109,15.2958906 87.7993125,15.9847344 87.5153477,17.1185 L85.1410352,26.6152266 L82.9970352,22.3274883 C82.4743828,21.2821836 81.2045234,20.8584609 80.1581719,21.381375 C79.1131289,21.9040273 78.6894063,23.1746719 79.2120586,24.2199766 L81.4756641,28.7471875 C82.1802109,30.1562812 83.5966328,31.0317305 85.171918,31.0317305 C87.0719961,31.0317305 88.7208242,29.7445977 89.1811875,27.9015742 L91.6201445,18.1449609 C91.9043711,17.0111953 91.2152656,15.8625117 90.0815,15.5790703 Z" id="Shape"></path>
                                    <path d="M103.673602,121.305332 C102.504766,121.305332 101.557867,122.252754 101.557867,123.421066 L101.557867,126.242133 C101.557867,128.186703 99.9760391,129.768531 98.0314687,129.768531 L7.75786719,129.768531 C5.81329687,129.768531 4.23146875,128.186703 4.23146875,126.242133 L4.23146875,7.75786719 C4.23146875,5.81329687 5.81329687,4.23146875 7.75786719,4.23146875 L98.0314687,4.23146875 C99.9760391,4.23146875 101.557867,5.81329687 101.557867,7.75786719 L101.557867,83.9263984 C101.557867,85.0949727 102.504766,86.0421328 103.673602,86.0421328 C104.842437,86.0421328 105.789336,85.0947109 105.789336,83.9263984 L105.789336,7.75786719 C105.789598,3.48007422 102.309262,0 98.0314687,0 L7.75786719,0 C3.48033594,0 0,3.48007422 0,7.75786719 L0,126.242133 C0,130.519926 3.48033594,134 7.75786719,134 L98.0314687,134 C102.309,134 105.789336,130.519926 105.789336,126.242133 L105.789336,123.421066 C105.789598,122.252492 104.842437,121.305332 103.673602,121.305332 Z" id="Shape"></path>
                                    <path d="M26.9410664,101.557867 C25.7722305,101.557867 24.825332,102.505289 24.825332,103.673602 C24.825332,104.842176 25.7724922,105.789336 26.9410664,105.789336 L27.505332,105.789336 C28.674168,105.789336 29.6210664,104.841914 29.6210664,103.673602 C29.6210664,102.505027 28.674168,101.557867 27.505332,101.557867 L26.9410664,101.557867 Z" id="Shape"></path>
                                    <path d="M15.6568008,101.557867 C14.4879648,101.557867 13.5410664,102.505289 13.5410664,103.673602 C13.5410664,104.842176 14.4879648,105.789336 15.6568008,105.789336 L16.2210664,105.789336 C17.3899023,105.789336 18.3368008,104.841914 18.3368008,103.673602 C18.3368008,102.505027 17.3899023,101.557867 16.2210664,101.557867 L15.6568008,101.557867 Z" id="Shape"></path>
                                    <path d="M119.189598,88.8631992 L58.5368008,88.8631992 C56.3797148,88.8631992 54.5419258,90.2531875 53.8714023,92.1844102 L42.134625,96.096582 C38.8681133,97.1855938 36.6736016,100.230691 36.6736016,103.673602 C36.6736016,107.116773 38.8681133,110.161609 42.134625,111.250621 L53.8714023,115.162793 C54.5419258,117.094016 56.3799766,118.484004 58.5368008,118.484004 L119.189336,118.484004 C127.355746,118.484004 133.999738,111.840273 133.999738,103.673602 C133.999738,95.5069297 127.355746,88.8631992 119.189598,88.8631992 Z M53.6,110.611766 L43.4733164,107.236117 C41.9372891,106.724195 40.905332,105.292332 40.905332,103.673602 C40.905332,102.054871 41.9375508,100.62327 43.4733164,100.111086 L53.6,96.7354375 L53.6,110.611766 Z M110.021066,114.252535 L58.5368008,114.252535 C58.156,114.252535 57.8450781,113.949465 57.8319922,113.572066 C57.8322539,113.546941 57.8319922,113.52234 57.8314687,113.497477 L57.8314687,105.789336 L110.021066,105.789336 L110.021066,114.252535 Z M110.021066,101.557867 L57.8314687,101.557867 L57.8314687,93.8497266 C57.8319922,93.8248633 57.8322539,93.8 57.8319922,93.7751367 C57.8450781,93.3977383 58.1557383,93.094668 58.5368008,93.094668 L110.021066,93.094668 L110.021066,101.557867 Z M119.189598,114.252535 L114.252797,114.252535 L114.252797,93.094668 L119.189598,93.094668 C125.023047,93.094668 129.768531,97.8401523 129.768531,103.673602 C129.768531,109.507051 125.022785,114.252535 119.189598,114.252535 Z" id="Shape"></path>
                                    <path d="M67,21.1578672 L16.2210664,21.1578672 C15.0522305,21.1578672 14.105332,22.1052891 14.105332,23.2736016 C14.105332,24.4419141 15.0522305,25.3893359 16.2210664,25.3893359 L67,25.3893359 C68.1688359,25.3893359 69.1157344,24.4419141 69.1157344,23.2736016 C69.1157344,22.1052891 68.1688359,21.1578672 67,21.1578672 Z" id="Shape"></path>
                                    <path d="M69.1157344,62.7685312 C69.1157344,61.599957 68.1685742,60.6527969 67,60.6527969 L16.2210664,60.6527969 C15.0522305,60.6527969 14.105332,61.6002187 14.105332,62.7685312 C14.105332,63.9371055 15.0522305,64.8842656 16.2210664,64.8842656 L67,64.8842656 C68.1688359,64.8842656 69.1157344,63.9368437 69.1157344,62.7685312 Z" id="Shape"></path>
                                    <path d="M67,40.905332 L16.2210664,40.905332 C15.0522305,40.905332 14.105332,41.8527539 14.105332,43.0210664 C14.105332,44.1896406 15.0522305,45.1368008 16.2210664,45.1368008 L67,45.1368008 C68.1688359,45.1368008 69.1157344,44.1893789 69.1157344,43.0210664 C69.1157344,41.8524922 68.1688359,40.905332 67,40.905332 Z" id="Shape"></path>
                                </g>
                            </g>
                        </g>
                    </g>
                </g>
            </g>
        </g>
    </g>
</svg>