<?xml version="1.0" encoding="UTF-8"?>
<svg width="93px" height="65px" viewBox="0 0 93 65" version="1.1" xmlns="http://www.w3.org/2000/svg" xmlns:xlink="http://www.w3.org/1999/xlink">
    <!-- Generator: Sketch 44.1 (41455) - http://www.bohemiancoding.com/sketch -->
    <title>Shape</title>
    <desc>Created with Sketch.</desc>
    <defs></defs>
    <g id="Page-1" stroke="none" stroke-width="1" fill="none" fill-rule="evenodd">
        <g id="Home-Page-Desktop" transform="translate(-675.000000, -2368.000000)" fill="#FFFFFF">
            <g id="Group-17" transform="translate(91.000000, 1994.000000)">
                <g id="group" transform="translate(584.088194, 374.809859)">
                    <path d="M63.2888258,27.3639839 C70.4615593,27.3639839 75.9465909,21.4351207 75.9465909,13.681992 C75.9465909,5.92886318 70.4615593,0 63.2888258,0 C56.1160922,0 50.6310606,5.92886318 50.6310606,13.681992 C50.6310606,21.4351207 56.1160922,27.3639839 63.2888258,27.3639839 L63.2888258,27.3639839 Z M29.5347854,27.3639839 C36.7075189,27.3639839 42.1925505,21.4351207 42.1925505,13.681992 C42.1925505,5.92886318 36.7075189,0 29.5347854,0 C22.3620518,0 16.8770202,5.92886318 16.8770202,13.681992 C16.8770202,21.4351207 22.3620518,27.3639839 29.5347854,27.3639839 L29.5347854,27.3639839 Z M29.5347854,36.4853119 C19.8304987,36.4853119 0,41.9581087 0,52.4476358 L0,63.8492958 L59.0695707,63.8492958 L59.0695707,52.4476358 C59.0695707,41.9581087 39.239072,36.4853119 29.5347854,36.4853119 L29.5347854,36.4853119 Z M63.2888258,36.4853119 C62.0230492,36.4853119 60.7572727,36.4853119 59.0695707,36.9413783 C64.1326768,40.5899095 67.5080808,46.0627062 67.5080808,52.4476358 L67.5080808,63.8492958 L92.8236111,63.8492958 L92.8236111,52.4476358 C92.8236111,41.9581087 72.9931124,36.4853119 63.2888258,36.4853119 L63.2888258,36.4853119 Z" id="Shape"></path>
                </g>
            </g>
        </g>
    </g>
</svg>