<svg xmlns="http://www.w3.org/2000/svg" width="18" height="23" viewBox="0 0 18 23">
    <path fill="#000" fill-rule="evenodd" d="M7.309 15.244c-.15.79-.313 1.565-.492 2.325-.178.76-.402 1.475-.67 2.145-.268.67-.588 1.29-.96 1.855A5.275 5.275 0 0 1 3.803 23a15.327 15.327 0 0 1-.112-3.375c.09-1.058.242-2.075.458-3.051.216-.976.457-1.934.725-2.872.268-.94.5-1.885.693-2.839-.328-.551-.492-1.203-.492-1.956 0-.752.138-1.438.414-2.056.275-.619.67-1.1 1.183-1.442.514-.343 1.113-.372 1.798-.09.864.329 1.217.947 1.06 1.856a20.72 20.72 0 0 1-.714 2.85c-.32.99-.502 1.91-.547 2.76-.045.85.462 1.379 1.519 1.587 1.116.224 2.058-.067 2.825-.872.766-.804 1.314-1.806 1.641-3.006.328-1.2.424-2.432.29-3.7-.134-1.266-.55-2.25-1.25-2.95-.998-1.013-2.155-1.557-3.473-1.631a6.947 6.947 0 0 0-3.696.793C4.98 3.61 4.052 4.49 3.345 5.644c-.707 1.155-.942 2.455-.704 3.9.104.715.365 1.285.782 1.71.417.425.35 1.121-.201 2.09-1.28-.283-2.148-.894-2.602-1.833-.454-.939-.659-2.079-.614-3.42C.051 6.99.3 5.98.754 5.063A8.464 8.464 0 0 1 2.518 2.66 9.17 9.17 0 0 1 4.964.995 8.822 8.822 0 0 1 7.755.2a11.82 11.82 0 0 1 3.484.112c1.132.209 2.148.581 3.049 1.118.9.536 1.652 1.229 2.255 2.078.603.85.987 1.84 1.15 2.973a11.69 11.69 0 0 1-.134 3.811c-.253 1.26-.7 2.38-1.34 3.364a7.326 7.326 0 0 1-2.434 2.347c-.982.581-2.114.82-3.394.715-.7-.06-1.251-.235-1.653-.525-.402-.29-.878-.607-1.43-.95z"/>
</svg>
